<?xml version="1.0" standalone="no"?>
<!DOCTYPE svg PUBLIC "-//W3C//DTD SVG 20010904//EN"
 "http://www.w3.org/TR/2001/REC-SVG-20010904/DTD/svg10.dtd">
<svg version="1.0" xmlns="http://www.w3.org/2000/svg"
 width="260.000000pt" height="260.000000pt" viewBox="0 0 260.000000 260.000000"
 preserveAspectRatio="xMidYMid meet">
<metadata>
Created by potrace 1.14, written by Peter Selinger 2001-2017
</metadata>
<g transform="translate(0.000000,260.000000) scale(0.100000,-0.100000)"
fill="#000000" stroke="none">
<path d="M1175 2594 c-186 -27 -316 -65 -447 -129 -132 -66 -232 -138 -343
-250 -255 -254 -379 -555 -379 -915 0 -360 124 -661 379 -915 254 -255 555
-379 915 -379 360 0 661 124 915 379 255 254 379 555 379 915 0 360 -124 661
-379 915 -191 191 -400 303 -670 360 -77 16 -309 28 -370 19z m494 -681 c26
-22 351 -589 351 -613 0 -24 -325 -591 -351 -612 -19 -16 -52 -18 -354 -18
-184 0 -344 4 -357 9 -29 11 -361 582 -361 621 0 35 331 610 358 620 11 5 171
9 356 9 307 1 339 -1 358 -16z"/>
<path d="M1192 1809 c4 -12 607 -363 613 -357 2 2 -42 85 -98 183 l-103 180
-208 3 c-148 2 -207 -1 -204 -9z"/>
<path d="M1047 1743 c-10 -9 -9 -881 1 -887 9 -5 765 429 770 442 1 4 -161
102 -360 217 -200 115 -372 215 -384 222 -11 7 -24 10 -27 6z"/>
<path d="M882 1593 c-22 -38 -67 -116 -101 -174 -33 -58 -61 -111 -61 -119 0
-13 183 -336 201 -354 5 -6 9 132 9 352 0 199 -2 362 -5 362 -2 0 -22 -30 -43
-67z"/>
<path d="M1495 975 c-165 -96 -301 -179 -303 -185 -3 -7 60 -10 204 -8 l208 3
69 120 c118 207 139 245 130 244 -4 0 -143 -78 -308 -174z"/>
</g>
</svg>
